/* XPM */
static char * Exit_xpm[] = {
"105 123 12 1",
" 	c None",
".	c #607897",
"+	c #7998BF",
"@	c #394554",
"#	c #2B3037",
"$	c #191C1E",
"%	c #141412",
"&	c #242A36",
"*	c #3B535E",
"=	c #343C45",
"-	c #56687E",
";	c #5C8EA5",
"                                                                                                         ",
"                                                                                                         ",
"                                                                                                         ",
"                                                                                                         ",
"                                                                                                         ",
"                                                                                                         ",
"                                                                                                         ",
"                                                                                                         ",
"                                                                                                         ",
"                                                                                                         ",
"                                                                                                         ",
"                                                                                                         ",
"                                                                                                         ",
"                                                                                                         ",
"                                                                                                         ",
"                                                                                                         ",
"                                                                                                         ",
"                                                                                                         ",
"                                                                                                         ",
"                                                                                                         ",
"                                                                                                         ",
"                                                                                                         ",
"                                                                                                         ",
"                                                                                                         ",
"                                                                                                         ",
"                                                                                                         ",
"                                                                                                         ",
"                                                                                                         ",
"                                                                                                         ",
"                                                                                                         ",
"                                                                                                         ",
"                                                                                                         ",
"                                                                                                         ",
"                                                                                                         ",
"                                                                                                         ",
"                                                                                                         ",
"                                                                                                         ",
"                                                                                                         ",
"                                                                                                         ",
"                                               .++++++++.                                                ",
"                                             ++++++++++++++                                              ",
"                                           ++++.@######@.++++                                            ",
"                                          +++.@##########@.+++                                           ",
"                                         .++@#####$$$$#####@++.                                          ",
"                                        ...@###$%%%%%%%%$###@...                                         ",
"                                       ...@##$%%%%%%%%%%%%$##@...                                        ",
"                                      @..@##$%%%&&%%%%&&%%%$##@..@                                       ",
"                                      ...##%%%%%%%%%%%%%%%%%%##...                                       ",
"                                    ....##$%%%%%&&%%%%&&%%%%%$##....                                     ",
"                                    ....#$%%%%%%&&%%%%&&%%%%%%$#....                                     ",
"                                    @@@@#%%%%%%%&&%%%%&&%%%%%%%#@@@@                                     ",
"                                    @@@@$%&&%%%%**%%%%**%%%%&&%$@@@@                                     ",
"                                    ####%%%%%%%%&&%%%%&&%%%%%%%%####                                     ",
"                                    %%%%%%&&%&&&**%&&%**&&&%&&%%%%%%                                     ",
"                                    ==$$%%&&%&&&**%&&%**&&&%&&%%$$==                                     ",
"                                    ==$$%%&&%%%%**%%%%**%%%%&&%%$$==                                     ",
"                                    @@$$%%&&%%%%**%%%%**%%%%&&%%$$@@                                     ",
"                                    --$$%%**%%%%;;%%%%;;%%%%**%%$$--                                     ",
"                                    --$$%%&&%%%%**%%%%**%%%%&&%%$$--                                     ",
"                                    --$$%%**%%%%;;%%%%;;%%%%**%%$$--                                     ",
"                                    --$$%%**%%%%;;%%%%;;%%%%**%%$$--                                     ",
"                                    --$$%&**&***;;&**&;;***&**&%$$--                                     ",
"                                    --$$%&**&***;;&**&;;***&**&%$$--                                     ",
"                                    --$$%%;;%%%%;;%%%%;;%%%%;;%%$$--                                     ",
"                                    @@$$%%**%%%%;;%%%%;;%%%%**%%$$@@                                     ",
"                                    --$$%%;;%%%%;;%%%%;;%%%%;;%%$$--                                     ",
"                                    @@$$%%;;%%%%;;%%%%;;%%%%;;%%$$@@                                     ",
"                                    --$$%%;;%%%%;;%%%%;;%%%%;;%%$$--                                     ",
"                                    @@$$%%;;%%%%;;%%%%;;%%%%;;%%$$@@                                     ",
"                                    @@$$%*;;&***;;&**&;;***&;;*%$$@@                                     ",
"                                    @@$$%*;;&***;;&**&;;***&;;*%$$@@                                     ",
"                                    @@$$%%;;%%%%;;%%%%;;%%%%;;%%$$@@                                     ",
"                                    @@$$%%;;%%%%;;%%%%;;%%%%;;%%$$@@                                     ",
"                                    @@$$%%;;%%%%;;%%%%;;%%%%;;%%$$@@                                     ",
"                                    @@$$%%;;%%%%;;%%%%;;%%%%;;%%$$@@                                     ",
"                                    @@$$%%;;%%%%;;%%%%;;%%%%;;%%$$@@                                     ",
"                                    @@$$%%;;%%%%;;%%%%;;%%%%;;%%$$@@                                     ",
"                                    @@$$%*;;&***;;&**&;;***&;;*%$$@@                                     ",
"                                    @@$$%*;;&***;;&**&;;***&;;*%$$@@                                     ",
"                                    @@$$%%;;%%%%;;%%%%;;%%%%;;%%$$@@                                     ",
"                                    @@$$%%**%%%%**%%%%**%%%%**%%$$@@                                     ",
"                                    @@$$%%**%%%%**%%%%**%%%%**%%$$@@                                     ",
"                                    @@$$%%&&%%%%&&%%%%&&%%%%&&%%$$@@                                     ",
"                                    $$$$%%&&%%%%&&%%%%&&%%%%&&%%$$$$                                     ",
"                                    $$$$%%&&%%%%&&%%%%&&%%%%&&%%$$$$                                     ",
"                                                                                                         ",
"                                                                                                         ",
"                                                                                                         ",
"                                                                                                         ",
"                                                                                                         ",
"                                                                                                         ",
"                                                                                                         ",
"                                                                                                         ",
"                                                                                                         ",
"                                                                                                         ",
"                                                                                                         ",
"                                                                                                         ",
"                                                                                                         ",
"                                                                                                         ",
"                                                                                                         ",
"                                                                                                         ",
"                                                                                                         ",
"                                                                                                         ",
"                                                                                                         ",
"                                                                                                         ",
"                                                                                                         ",
"                                                                                                         ",
"                                                                                                         ",
"                                                                                                         ",
"                                                                                                         ",
"                                                                                                         ",
"                                                                                                         ",
"                                                                                                         ",
"                                                                                                         ",
"                                                                                                         ",
"                                                                                                         ",
"                                                                                                         ",
"                                                                                                         ",
"                                                                                                         ",
"                                                                                                         ",
"                                                                                                         ",
"                                                                                                         ",
"                                                                                                         "};
