/* XPM */
static char * Exit2_xpm[] = {
"32 48 9 1",
" 	c None",
".	c #607897",
"+	c #7998BF",
"@	c #394554",
"#	c #2B3037",
"$	c #191C1E",
"%	c #141412",
"&	c #343C45",
"*	c #56687E",
"                                ",
"                                ",
"           .++++++++.           ",
"         ++++++++++++++         ",
"       ++++.@######@.++++       ",
"      +++.@##########@.+++      ",
"     .++@#####$$$$#####@++.     ",
"    ...@###$%%%%%%%%$###@...    ",
"   ...@##$%%%%%%%%%%%%$##@...   ",
"   ..@##$%%%%%%%%%%%%%%$##@..@  ",
"  ...##%%%%%%%%%%%%%%%%%%##...  ",
"....##$%%%%%%%%%%%%%%%%%%$##....",
"....#$%%%%%%%%%%%%%%%%%%%%$#....",
"@@@@#%%%%%%%%%%%%%%%%%%%%%%#@@@@",
"@@@@$%%%%%%%%%%%%%%%%%%%%%%$@@@@",
"####%%%%%%%%%%%%%%%%%%%%%%%%####",
"%%%%%%%%%%%%%%%%%%%%%%%%%%%%%%%%",
"&&$$%%%%%%%%%%%%%%%%%%%%%%%%$$&&",
"&&$$%%%%%%%%%%%%%%%%%%%%%%%%$$&&",
"@@$$%%%%%%%%%%%%%%%%%%%%%%%%$$@@",
"**$$%%%%%%%%%%%%%%%%%%%%%%%%$$**",
"**$$%%%%%%%%%%%%%%%%%%%%%%%%$$**",
"**$$%%%%%%%%%%%%%%%%%%%%%%%%$$**",
"**$$%%%%%%%%%%%%%%%%%%%%%%%%$$**",
"**$$%%%%%%%%%%%%%%%%%%%%%%%%$$**",
"**$$%%%%%%%%%%%%%%%%%%%%%%%%$$**",
"**$$%%%%%%%%%%%%%%%%%%%%%%%%$$**",
"@@$$%%%%%%%%%%%%%%%%%%%%%%%%$$@@",
"**$$%%%%%%%%%%%%%%%%%%%%%%%%$$**",
"@@$$%%%%%%%%%%%%%%%%%%%%%%%%$$@@",
"**$$%%%%%%%%%%%%%%%%%%%%%%%%$$**",
"@@$$%%%%%%%%%%%%%%%%%%%%%%%%$$@@",
"@@$$%%%%%%%%%%%%%%%%%%%%%%%%$$@@",
"@@$$%%%%%%%%%%%%%%%%%%%%%%%%$$@@",
"@@$$%%%%%%%%%%%%%%%%%%%%%%%%$$@@",
"@@$$%%%%%%%%%%%%%%%%%%%%%%%%$$@@",
"@@$$%%%%%%%%%%%%%%%%%%%%%%%%$$@@",
"@@$$%%%%%%%%%%%%%%%%%%%%%%%%$$@@",
"@@$$%%%%%%%%%%%%%%%%%%%%%%%%$$@@",
"@@$$%%%%%%%%%%%%%%%%%%%%%%%%$$@@",
"@@$$%%%%%%%%%%%%%%%%%%%%%%%%$$@@",
"@@$$%%%%%%%%%%%%%%%%%%%%%%%%$$@@",
"@@$$%%%%%%%%%%%%%%%%%%%%%%%%$$@@",
"@@$$%%%%%%%%%%%%%%%%%%%%%%%%$$@@",
"@@$$%%%%%%%%%%%%%%%%%%%%%%%%$$@@",
"@@$$%%%%%%%%%%%%%%%%%%%%%%%%$$@@",
"$$$$%%%%%%%%%%%%%%%%%%%%%%%%$$$$",
"$$$$%%%%%%%%%%%%%%%%%%%%%%%%$$$$"};
