/* XPM */
static char * Item_xpm[] = {
"105 123 10 1",
" 	c None",
".	c #281818",
"+	c #141412",
"@	c #8E5E34",
"#	c #523D2A",
"$	c #3D3122",
"%	c #6E4B2C",
"&	c #5C8EA5",
"*	c #3B535E",
"=	c #332520",
"                                                                                                         ",
"                                                                                                         ",
"                                                                                                         ",
"                                                                                                         ",
"                                                                                                         ",
"                                                                                                         ",
"                                                                                                         ",
"                                                                                                         ",
"                                                                                                         ",
"                                                                                                         ",
"                                                                                                         ",
"                                                                                                         ",
"                                                                                                         ",
"                                                                                                         ",
"                                                                                                         ",
"                                                                                                         ",
"                                                                                                         ",
"                                                                                                         ",
"                                                                                                         ",
"                                                                                                         ",
"                                                                                                         ",
"                                                                                                         ",
"                                                                                                         ",
"                                                                                                         ",
"                                                                                                         ",
"                                                                                                         ",
"                                                                                                         ",
"                                                                                                         ",
"                                                                                                         ",
"                                                                                                         ",
"                                                                                                         ",
"                                                                                                         ",
"                                                                                                         ",
"                                                                                                         ",
"                                                                                                         ",
"                                                                                                         ",
"                                                                                                         ",
"                                                                                                         ",
"                                                                                                         ",
"                                                                                                         ",
"                                                                                                         ",
"                                                                                                         ",
"                                                                                                         ",
"                                                                                                         ",
"                                                                                                         ",
"                                                                                                         ",
"                                                                                                         ",
"                                                                                                         ",
"                                                                                                         ",
"                                                                                                         ",
"                                                                                                         ",
"                                       ..                      ++                                        ",
"                                      .@@++++++++++++++++++++++@@+                                       ",
"                                     .#@@$####################$@@#+                                      ",
"                                     .#@@$#%#%#%#%%%%%%%%%%%%#$@@#+                                      ",
"                                     .#@@$#%%%%%%%%%%%%%%%%%%#$@@#+                                      ",
"                                     .#@@$#%%%%%%%%%%%%%%%%###$@@#+                                      ",
"                                     .#@@$#%%%%%%%%%%%%%%%%%%#$@@#+                                      ",
"                                     .#@@$#%%%%%%%%%%%%%%%%%%#$@@#+                                      ",
"                                     .#@@.#%%%%%%%%%%%%%%%%%%#.@@#+                                      ",
"                                     .$%%.$$################$$.%%$+                                      ",
"                                     .&%%***&&&&&&&&&&&&&&&&***%%&+                                      ",
"                                     .&&&*=$$=====*..*=====$$=*&&&+                                      ",
"                                     .=##$#######$&..&$#######$##=+                                      ",
"                                     .=%%$#######$&**&$#######$%%=+                                      ",
"                                     .=%%$#######$$&&$$#######$%%=+                                      ",
"                                     .=%%$$$$$$==========$$$$$$%%=+                                      ",
"                                     .=%%$####################$%%=+                                      ",
"                                     .=%%$####################$%%=+                                      ",
"                                     .=%%$####################$%%=+                                      ",
"                                      +==++++++++++++++++++++++==+                                       ",
"                                                                                                         ",
"                                                                                                         ",
"                                                                                                         ",
"                                                                                                         ",
"                                                                                                         ",
"                                                                                                         ",
"                                                                                                         ",
"                                                                                                         ",
"                                                                                                         ",
"                                                                                                         ",
"                                                                                                         ",
"                                                                                                         ",
"                                                                                                         ",
"                                                                                                         ",
"                                                                                                         ",
"                                                                                                         ",
"                                                                                                         ",
"                                                                                                         ",
"                                                                                                         ",
"                                                                                                         ",
"                                                                                                         ",
"                                                                                                         ",
"                                                                                                         ",
"                                                                                                         ",
"                                                                                                         ",
"                                                                                                         ",
"                                                                                                         ",
"                                                                                                         ",
"                                                                                                         ",
"                                                                                                         ",
"                                                                                                         ",
"                                                                                                         ",
"                                                                                                         ",
"                                                                                                         ",
"                                                                                                         ",
"                                                                                                         ",
"                                                                                                         ",
"                                                                                                         ",
"                                                                                                         ",
"                                                                                                         ",
"                                                                                                         ",
"                                                                                                         ",
"                                                                                                         ",
"                                                                                                         ",
"                                                                                                         ",
"                                                                                                         ",
"                                                                                                         ",
"                                                                                                         ",
"                                                                                                         ",
"                                                                                                         ",
"                                                                                                         ",
"                                                                                                         "};
