/* XPM */
static char * Trees_xpm[] = {
"105 123 12 1",
" 	c None",
".	c #3D7F13",
"+	c #529E14",
"@	c #10671C",
"#	c #72B516",
"$	c #12561C",
"%	c #64462D",
"&	c #88603F",
"*	c #13461A",
"=	c #4B3421",
"-	c #AA784F",
";	c #CE8E59",
"                               .....+++++....@@##@@@@....+++++++++  @@                                   ",
"                               ....++++###...#####@++...+++++++++++@@@@                                  ",
"                             +++..+###+###.#######+++++++++++++++++@@@@@@                                ",
"                             ++++#########.######+++++++++++++.++..@@@@@@                                ",
"                             ++++#########..#########+##++++++.....++@@@@                                ",
"                           ++++++#######################++++++....++++$$$$                               ",
"                           +++++++#####################++++++..++.++++@@@$                               ",
"                           @@++++#####+##++#####+#######+++++..++++++@@@@$                               ",
"                          @@+++++#####++++######+++##+##++++++..++++++@@@$                               ",
"                         @@@+++++++++++########+++++++++++++++++++++++@@$$$$                             ",
"                         @@@@++++++++++########+##+###+++++++++++++%++@@$$$$                             ",
"                          @@+++++++++++#################+++++++++@@%@@$$$$$$$                            ",
"                         @@@##+##+###+++################+++++%+++@@%@@$$$$$$$                            ",
"                       ..@@@#####+#####+###############++++..%%++@@%@@@@$$@@@ @@@                        ",
"                       ....@+###########################++++++%%.@%%@@@@$@@@@@@@@                        ",
"                   ++ ++...@+++#####################+###++++++.%%.%..@@@@@@..@..++                       ",
"                   +++++...+++######################+++++++++...%%%..@@@@@...++.++                       ",
"                  ++++++##+##+#######+##+###########++++++++++..%%..@@..@....+++++                       ",
"                  ++++++#####+++##+++++++########+++++++++++++..%...@@..++....+++++++                    ",
"            ...  ...+++########+###+##+++++########++++++++++..%%.......+++......++++@ @@@               ",
"            ...  ...+++########+######++++#########++++++++++..%.........++++....++++@ @@@               ",
"          ......+&....++######++#####+++++########++..+++++++++%++......+++++.++.....@@@@@$              ",
"          ..+++.+&&...+###############+##++###+##++..+++++..++++++.++...++++++++....@@@@@@@$$            ",
"     ... ..+++++++&&...###################+++++..++..++.++.+++++++.+++.....++++@@..@@@@@@@@$$$***        ",
"     .......+++++++&&&.###&#################...............++++....+++.++.++++++@@@@@@@@@@@@$$***        ",
"      .....+##+##++.+&&.++&###############...................++.++.++++++.++++++..@@@$$@@$@@$$$**        ",
"    ++.++..#######++++&++&&+######+##+###......++.++.......++++.++++++++..+++++....@@@$$$$$$$$$***       ",
"   ++++++.+#######++++&&&&+#####+++++++##......+++++.......+++++++++++++++++++++....@@$$$$$$$$****       ",
"   +++++++#######+++++&&+++##+##+++++++++.+..++++++..@....++++++++++++++++++++++....@$$$@@@$$$$$**       ",
"   +++++######++++###&&+++++++++++++++++++++++++++++@@...@++++++++++++++++++@++...$$$$$$@@@@@$$$*        ",
"    ++++#####++++####&&##+##++++++++++++++++++++++++@@@..@++++++++++++++++++@@....$$$$$$$@@@@$$****      ",
"   +++++++###+##+####&#######+++##+++++++++++++++++%%%@@@@.++%+++++++.++++$$$$..$$$$$$@@$@@@$$$$***      ",
"   +++++++###################+++#####+++++++..++++++@%%%%@...%.+++++..@...$$$$$$$$$@@$@@@@@@*$$$**       ",
"    ++++######################+++#####++++++..++.+++@@@@%%...%.++.++@@@..@$@@$$$$$$@@@@@@@@$********     ",
" ...++++######################++######++++++......@@@@@@.%%.%%.......@@@@@@@@@$$$$$$@@@@@@@$*$$*****     ",
" ....++++################+###++######++++++.......@@@@@@..%%%.........@@@@@@@@$$$$@@@@@@@@$$$$$*****     ",
" ......####++###########+++###########+++++++.++..++@@@@@.%%..........@@@@@@$$$$$$@@@@@@@@@$$$$$$**      ",
"   ....####++###########+#########++##.+++++++++..+++@@@%%%..........@@@@@@@@$$$$$@@$@@@$@@$$$$$$$***    ",
" .....@####+###########++#######++++++..+++++++++.+++@@%%%....++.+++..@@@@$@@$$$$$$$$@@$$$$$$$$$$$***    ",
"....&&@+###+############+########+++++.+++++++++++++@@%%%@....++++++...@@$$$$$$$$$$$$$$$$$$$$$$$$******  ",
".....&@####+++##########++#######.++...++++++++++++++@%%%..++.++++++...@@$$$$$$$$$$$$$$$$$$$$$$$$$****** ",
"..@..&@####+++##&########+#######......+++.+++++++++++%%++.++++++++...@@@$$$@@$$$$$$$*$$$$$$**$$$$****** ",
"*@@@@&&###+++++&&+++#####+++##+##...@......+++.++++++++%++.+++++++++....@..@@@@$@@$***$$$$$$$*$$$******  ",
"***...&&.+++++&&+.+#####+++++....@@@@......+++....++++++++...+++++++.........@@@@@$$$*$$*$$$$*********** ",
"***..++&&&&++&&...#######+.++....@@@@...=..++++..+++++++++.+++++++++.........@@@@@$$$****$$$$$********** ",
"...+++++++&&&&....####+##.......@$$$....=@.+++++.++++++++++++++++++..@......@@@@@@$$****$$$$$$********   ",
"...+++++++++&&.....##.........@$$$$@..===@++++++.....+++++++++++++++@@........@@@$$$$$**$$$$$**********  ",
" ...+++++++++&&.++.............$@@$@@==..@+++++....++++++++++.++.+++@@........@@@@$$$$$**$$************  ",
" ..++++++++++&&+++..++.........@@@$$==.....+++++...++++++++++.....@@@@@..@..@@@$@@$$$$$***************   ",
"...++..+++++++&&....++++......@@@@@==@.....++.++..++++++++++++....@@@@@@@@@@@@$$$$$$$$$****$$*$$*** **   ",
"......++++++++&&&....++++.=..@@@@@@=@@@..@........+++..+++++++...$@@@@@@@@@@**$$$$$$$$**$$*$$$$$$*       ",
"   @..++.++++++&&.+++++++.=@@@@@@@==@@@@@@.............++.+++$$$$$$$@@@@@@@@****$$=$$$**$$$$$$$$$**      ",
"   @......+++++&&&++++++.@==@@@@@@=@@@@@@@.......@......$$$****$$$$$@@@@@$@@******=******$$$$$$$*** **   ",
"   $@....+++++..&&&++++++@@==$@@$@=@@@@$$$@..@..@@$$$$..$$***$$$$@@$@@$$$$$$******=*****$$$$==$$*******  ",
" @@@@....++++++..++++++++@@@==$$$$=@@@@@$*$@@@@@@$$*$$*******$$$$@@@@@@$@@$$******==***$$$$$$==********  ",
" @@@.....++.+++..+++++++@@@@$===$$=@$*@@****@@$@@$$******$$*$@@@$@@@@@@@@@@@*******==**$$$$$$*=********  ",
" @@@..@..@@.++++..+++++++@@$$$$====*********$$$$$$*******$$$$@@@@@@@@@@@@@@@*$$*****==***$$$**=*******   ",
"   @@@@@@@@++++..++++++++..$$$$$$====*****$$$$$$$$$****$..@..@@@@@@@@@@@@@@@$$$******===*$$***=********* ",
" @@@@$@@@+++++++.+++++++.++$++$$$$====****$@@$$$$$$$@@@.......@@@@@@@@@@@@@$$$*********==****==********* ",
"$@@@$$@@@+++++++...+++++++++++$$$$**===*$@@@@@@@@@@@@@@.......@@@@@@@@@@@$$$$***********=**===*********  ",
"$@@@$@@@@.+++++..+++++++++++++$$$$@@@==..@...@@@@..@..@@......@@@@@@@@@@@@$$$$**********====************ ",
"$$$$$@@@@++++++.+++++++++++++..+++@@@=@......@@@@.....@......@$$@@@@@@@@@@$$$$*$$*****=====************* ",
" **$$$@@@++++++++++++++++++...++++.@@@@.......@@@@...........$$$$@@@@$@@@@$$$$$$$$****===****************",
"***$$..@...+++++++++++++++...++++++..@........@@..............$$$$$@@$@@@$$$$$$$$$***===$$$*$$***********",
"***$$......+++++++++++++++++.++++++..........@@@..............$$$$$$$$$$$$$$$$$******==$$$$$$$$**********",
"***$$$......++.++++++++++++++++++.............@@@...........$**$$$@@$$$$$$$$$$$$*****==$$$$$$$$********  ",
"    @..........+++.+++++.+++++++++............@..........$..****@@@@$@@$$$$$$$$$*$$*$$=*$$$$$**********  ",
"   *..........@....++++..+++++++++.........@..@.......$..$******@@@@@@@@@$$$$$***$$$$$$$$$$$$$*******    ",
"  **.....@..@@@..@@.++++.++.+++++@........@@@@@.......$$*******$@@@@@@@@@$@@$@@$$$$$$$$$$$$$$$$******    ",
"  **..@..@@@@@@...@@@@++....++.++@@.......@@@@@....@..$$$*****$$$@@$@@@@@@@@@@@$@@$$$$$$$$$$$$$***       ",
"    ***$$@@@..@....@..............@.......@@@@@@@@@@$$$$$$***$$$$$$$$$@@@@@@@@@@@@$$$$$$*$$*$$*****      ",
"   *****$$$.......................@..@...***@@@@$$@@$$$$$$$$$$$$$@@$$@@@@@@@@@@@@@@$$$*************      ",
"  ******$$$........@...@@@.......@@@@@..****@@@@$$$$$$$$$$$$$$$$@@@@$@@@@@@@@@@@@@@$$$$$$**********      ",
"  *******$$$.......@@..@@..........@@@@@*****$$$$$$$$$$$=$$$$$$@@@@@@@@@@@$@@$@@@$$$$$$$$********        ",
"   ** ***$$$..=....***$@@..=........@@@@****$$$$$$$$$***=*$$$$$@@@@@@@@@@@$$*****$$$$$$$**********       ",
"       *****$$=$$$*****@@@==@.......*@@*****$$$$$$$$$$$$=$$$$$$$@@@@@@$@@$$***$$$$$$$*$$**********       ",
"      *****$$$==$$$****$@@=@@..@...@*********$$$$$$$$$$$=$$$$$$@@@@@@$$$$$$*$$$$$$********  ******       ",
"      *****$$$$====*$$*====***$@@$@@******$$*$$$$$$$$$$*==$$*$$@@@@@$$$$$$$$$$$$$$$******** ** **        ",
"       ** **$$ $$$===$==********$$$****$$*$$$$$*$$$$$$$$$==****$$@@@=$$$$$$$$$$$$$$********              ",
"               ***$$===$@@@$@@$$$$$***$$$$$$$$$**$$*$$$$$*=**$$$$$$*=*$$$$$$**$$$********                ",
"              ***$$$$==$@@@@@@$@@$$$$$$$@@$$$$$$****$$*$$*=**$$$$$$*=$$$$$$$**$$$$********               ",
"              ***$$**$=$$@@@@@@@@@$$$$$$@@@@$$$$$$********==*$$*$$*==$$*$$$****$$$** ** **               ",
"               **  ***=$@@@@@@@@@@$$@@@$@@@@$$$$$$*********=*******=****$$$********                      ",
"                  ****==@@@@@@@@@$$$@@@@@@@$$$$$$**********===****==****************                     ",
"                  ***@@===$@@@@@@@$$$@@@@@@@$$$$$$***********=***==************** **                     ",
"                   **@@@@=@@@@@@@@@@@@@@@@@@$$$*$$*=***=*****==*==***************                        ",
"                   *@@@@@@@@@@@@@@@@@@@@$@@$$$$**===**==******===****************                        ",
"                    @@@@@@@@@$@@$@@@@@@@$$$$$$$***=======******==***==******** **                        ",
"                     @@ @@@$$$$$$@@$@@@$$*$$*$$****==**=*******======*********                           ",
"                        @@@ $$$$$$$$**$$********=**==********========****** **                           ",
"                              $$$$$$$***********======********======= **                                 ",
"                                $$*$$*********=======*****==**=======                                    ",
"                                $$******=*****=======******==========                                    ",
"                                  ****===******=======**=**==========                                    ",
"                                      ====*****======================                                    ",
"                                       =%%****%%%==%%%===============                                    ",
"                                       =%%****%%%==%%%=%%=====%%=====                                    ",
"                                       =%%***%%%%==%%%=%%%============                                   ",
"                                       ===%%==%%%%===%%%%%====%%======                                   ",
"                                      ====%%==%%%%===%%%%%============                                   ",
"                                     ====&&&==%%%%===%%%%%====%%======                                   ",
"                                    =====&-&%%%%%%===%%&&&====%%%%=====                                  ",
"                                  =======--&%%&&&&===%%&&&====%%%%======                                 ",
"                                ========%--&%%&&&&%=%&&&&&====%%%%=======                                ",
"                                =======%----%%&&--%=%&&&&&====%%%%%========                              ",
"                                ======%-----%&&&&&%%&&&&&&====%%%%%==========                            ",
"                                =====%------&&&&--%%&&&&&&%%==%%%%%%=========                            ",
"                                =====&-----&&&&&&&%%--&&&&&%==%%%%%%%========                            ",
"                                 ==&;;;;;--&&&&&--&%&&&&&&&%==%%%%%%%========                            ",
"                                 -;;;;;;;-%&&-----&%--&&&&&%%==%%%%%%%=======                            ",
"                                ;;;;;;;;;-%&------&%--&&&&&&%==%%%%%%%======                             ",
"                                ;;;;;;;;;&%&---;;;&%---&&&&&%==%%%%%%%%===                               ",
"                                ;;;;;;;;-%%--;;;;;&%---&&&&&&===%%%%%%%%==                               ",
"                                ;;;;;;;-&%&-;;;;;;&%-----&-&-%==%%%%%%%%%=                               ",
"                                ;;;;;;;-%%-;;;;;;;%%&--------&===%%%%%%%%=                               ",
"                                  ;;;;-%%&;;;;;;;-%=&---------%===%%%%%%%                                ",
"                                  ;;;-%%%-;;;;;;;&==%----------%===%%%%%%                                ",
"                                   --%%%&;;;;;;;;&===&---------%%===%%%                                  ",
"                                    %%%%;;;;;;;;-====%---------&%%===                                    ",
"                                       &;;;;;;;;&=====&--------&%%                                       ",
"                                        ;;;;;;;;&=====%--------%                                         ",
"                                           ;;;;;=======-------&                                          ",
"                                               ========-----                                             "};
